<svg width="25" height="25" viewBox="0 0 25 25" fill="none" xmlns="http://www.w3.org/2000/svg">
<g clip-path="url(#clip0_105_28)">
<path fill-rule="evenodd" clip-rule="evenodd" d="M23.8281 20.3125H1.17188C0.976562 20.3125 0.830078 20.166 0.830078 19.9707V5.41992C0.830078 4.98047 1.17188 4.63867 1.66016 4.63867H11.084C11.2793 4.63867 11.4258 4.78516 11.4258 4.98047C11.4258 5.17578 11.2793 5.32227 11.084 5.32227H1.66016C1.61133 5.32227 1.51367 5.32227 1.51367 5.41992V19.6289H23.4863V5.41992C23.4863 5.37109 23.4375 5.32227 23.3887 5.32227H21.9727C21.7773 5.32227 21.6309 5.17578 21.6309 4.98047C21.6309 4.78516 21.7773 4.63867 21.9727 4.63867H23.3887C23.8281 4.63867 24.1699 4.98047 24.1699 5.41992V19.9707C24.1699 20.166 24.0234 20.3125 23.8281 20.3125Z" fill="#F19E38"/>
<path fill-rule="evenodd" clip-rule="evenodd" d="M23.8281 17.3828H1.17188C0.976562 17.3828 0.830078 17.2363 0.830078 17.041C0.830078 16.8457 0.976562 16.6992 1.17188 16.6992H23.8281C24.0234 16.6992 24.1699 16.8457 24.1699 17.041C24.1699 17.2363 24.0234 17.3828 23.8281 17.3828Z" fill="#F19E38"/>
<path fill-rule="evenodd" clip-rule="evenodd" d="M13.623 22.7051H10.9863C10.791 22.7051 10.6445 22.5586 10.6445 22.3633V19.9707C10.6445 19.7754 10.791 19.6289 10.9863 19.6289H13.623C13.8184 19.6289 13.9648 19.7754 13.9648 19.9707V22.3633C13.9648 22.5586 13.8184 22.7051 13.623 22.7051ZM11.3281 22.0215H13.2812V20.3125H11.3281V22.0215Z" fill="#F19E38"/>
<path fill-rule="evenodd" clip-rule="evenodd" d="M18.2129 25H6.44531C6.25 25 6.10352 24.8535 6.10352 24.6582V23.4863C6.10352 22.7051 6.83594 22.0215 7.61719 22.0215H17.041C17.8223 22.0215 18.5547 22.7051 18.5547 23.4863V24.6582C18.5547 24.8535 18.4082 25 18.2129 25ZM6.78711 24.3164H17.8711V23.4863C17.8711 23.0957 17.4805 22.7051 17.041 22.7051H7.61719C7.17773 22.7051 6.78711 23.0957 6.78711 23.4863V24.3164Z" fill="#F19E38"/>
<path fill-rule="evenodd" clip-rule="evenodd" d="M11.3281 17.3828H3.41797C3.22266 17.3828 3.07617 17.2363 3.07617 17.041V14.9414C3.07617 13.623 4.15039 12.5488 5.41992 12.5488H5.81055L5.95703 11.8652C6.00586 11.6699 6.20117 11.5723 6.39648 11.6211C6.5918 11.6699 6.68945 11.8652 6.64062 12.0605L6.39648 12.9883C6.34766 13.1348 6.20117 13.2324 6.05469 13.2324H5.41992C4.54102 13.2324 3.75977 14.0137 3.75977 14.9414V16.6992H10.9863V14.9414C10.9863 14.0137 10.2539 13.2324 9.375 13.2324H8.69141C8.54492 13.2324 8.39844 13.1348 8.34961 12.9394L8.1543 12.0117C8.10547 11.8652 8.25195 11.6699 8.44727 11.6211C8.59375 11.5723 8.78906 11.7187 8.83789 11.9141L8.98438 12.5488H9.375C10.6445 12.5488 11.6699 13.623 11.6699 14.9414V17.041C11.6699 17.2363 11.5234 17.3828 11.3281 17.3828Z" fill="#F19E38"/>
<path fill-rule="evenodd" clip-rule="evenodd" d="M7.42185 12.5977C6.93357 12.5977 6.44529 12.4512 6.05466 12.207C5.27341 11.7188 4.88279 10.8887 4.98045 9.86328C5.02927 9.7168 5.17576 9.57031 5.37107 9.57031C5.56638 9.61914 5.66404 9.76562 5.66404 9.96094C5.56638 10.8887 6.00584 11.377 6.39646 11.6211C7.03123 12.0117 7.91013 11.9629 8.5449 11.5723C8.8867 11.3281 9.27732 10.8887 9.13084 9.96094C9.13084 9.76562 9.22849 9.61914 9.4238 9.57031C9.61912 9.57031 9.7656 9.66797 9.81443 9.86328C9.96091 10.8398 9.61912 11.6699 8.8867 12.1582C8.49607 12.4512 7.95896 12.5977 7.42185 12.5977Z" fill="#F19E38"/>
<path fill-rule="evenodd" clip-rule="evenodd" d="M7.37307 14.1602C7.37307 14.1602 7.37307 14.1602 7.32424 14.1602C6.39651 14.1114 5.81057 13.086 5.76174 13.0371C5.66409 12.8907 5.71292 12.6953 5.8594 12.5977C6.05471 12.5 6.25003 12.5489 6.34768 12.6953C6.49417 12.9395 6.88479 13.4766 7.37307 13.4766C7.71487 13.4766 8.05667 13.2324 8.39846 12.6953C8.49612 12.5489 8.74026 12.5 8.88674 12.5977C9.03323 12.6953 9.08206 12.9395 8.9844 13.086C8.49612 13.8184 7.95901 14.1602 7.37307 14.1602Z" fill="#F19E38"/>
<path fill-rule="evenodd" clip-rule="evenodd" d="M5.07812 17.3828C4.88281 17.3828 4.73633 17.2363 4.73633 17.041V15.332C4.73633 15.1367 4.88281 14.9902 5.07812 14.9902C5.27344 14.9902 5.41992 15.1367 5.41992 15.332V17.041C5.41992 17.2363 5.27344 17.3828 5.07812 17.3828Z" fill="#F19E38"/>
<path fill-rule="evenodd" clip-rule="evenodd" d="M9.7168 17.3828C9.52148 17.3828 9.375 17.2363 9.375 17.041V15.332C9.375 15.1367 9.52148 14.9902 9.7168 14.9902C9.91211 14.9902 10.0586 15.1367 10.0586 15.332V17.041C10.0586 17.2363 9.91211 17.3828 9.7168 17.3828Z" fill="#F19E38"/>
<path fill-rule="evenodd" clip-rule="evenodd" d="M9.66796 11.4258C9.66796 11.4258 9.66796 11.4258 9.61913 11.4258C9.32616 11.377 9.32616 11.084 9.32616 10.8398C9.32616 10.6934 9.27734 10.2539 9.22851 10.1562C9.17968 10.1562 9.17968 10.1074 9.17968 10.1074C9.17968 10.1074 9.08202 9.91211 9.0332 9.7168C8.98437 9.76562 8.98437 9.76562 8.98437 9.76562C8.6914 9.91211 8.15429 10.1562 7.37304 10.1074C6.54296 10.1562 6.05468 9.91211 5.81054 9.76562C5.76171 9.7168 5.76171 9.7168 5.76171 9.7168C5.66405 9.96094 5.5664 10.1074 5.5664 10.1562C5.46874 10.2539 5.46874 10.6445 5.46874 10.8398C5.41991 11.084 5.41991 11.377 5.12695 11.4258C5.02929 11.4258 4.83398 11.377 4.68749 11.1328C4.68749 11.084 4.63866 10.9863 4.58984 10.8398L4.44335 10.2051C4.44335 10.1562 4.44335 10.1562 4.44335 10.1562C4.24804 8.69141 4.54101 7.91016 4.58984 7.86133C4.98046 6.83594 6.10351 6.20117 7.42187 6.20117C8.6914 6.20117 9.81445 6.83594 10.2539 7.86133C10.2539 7.91016 10.2539 7.91016 10.2539 7.95898C10.4492 9.22852 10.4004 9.76562 10.1562 10.791C10.1074 10.9375 10.0586 11.0352 10.0586 11.084C9.96093 11.3281 9.81445 11.4258 9.66796 11.4258ZM7.42187 6.88477C6.34765 6.88477 5.51757 7.37305 5.2246 8.1543C5.2246 8.1543 5.02929 8.64258 5.07812 9.57031C5.07812 9.57031 5.07812 9.57031 5.07812 9.52148L5.12695 9.47266C5.17577 9.27734 5.32226 9.08203 5.51757 9.0332C5.76171 8.93555 5.95702 9.08203 6.10351 9.13086C6.34765 9.27734 6.68945 9.47266 7.37304 9.42383C8.0078 9.47266 8.39843 9.27734 8.64257 9.13086C8.83788 9.0332 9.0332 8.93555 9.27734 9.0332C9.47265 9.13086 9.5703 9.27734 9.5703 9.375C9.61913 9.42383 9.66796 9.52148 9.66796 9.57031C9.71679 9.13086 9.66796 8.74023 9.5703 8.10547C9.27734 7.37305 8.39843 6.88477 7.42187 6.88477Z" fill="#F19E38"/>
<path fill-rule="evenodd" clip-rule="evenodd" d="M21.4844 18.8477H20.2637C20.0684 18.8477 19.9219 18.7012 19.9219 18.5059C19.9219 18.3105 20.0684 18.1641 20.2637 18.1641H21.4844C21.6797 18.1641 21.8262 18.3105 21.8262 18.5059C21.8262 18.7012 21.6797 18.8477 21.4844 18.8477Z" fill="#F19E38"/>
<path fill-rule="evenodd" clip-rule="evenodd" d="M12.6953 9.96094C12.6465 9.96094 12.5977 9.96094 12.5488 9.91211C12.4023 9.86328 12.3535 9.76562 12.3535 9.61914V7.42188H11.4258C11.084 7.42188 10.7422 7.08008 10.7422 6.73828V0.683594C10.7422 0.292969 11.084 0 11.4258 0H21.6309C22.0215 0 22.3145 0.292969 22.3145 0.683594V6.73828C22.3145 7.08008 22.0215 7.42188 21.6309 7.42188H16.0645L12.8906 9.91211C12.8418 9.91211 12.7441 9.96094 12.6953 9.96094ZM11.4746 6.73828H12.6953C12.8906 6.73828 13.0371 6.88477 13.0371 7.08008V8.93555L15.7715 6.78711C15.8203 6.73828 15.8691 6.73828 15.9668 6.73828H21.6309V0.683594H11.4258V6.68945L11.4746 6.73828Z" fill="#F19E38"/>
<path fill-rule="evenodd" clip-rule="evenodd" d="M19.9707 2.68555H13.1348C12.9395 2.68555 12.793 2.53906 12.793 2.34375C12.793 2.14844 12.9395 2.00195 13.1348 2.00195H19.9707C20.166 2.00195 20.3125 2.14844 20.3125 2.34375C20.3125 2.53906 20.166 2.68555 19.9707 2.68555Z" fill="#F19E38"/>
<path fill-rule="evenodd" clip-rule="evenodd" d="M19.9707 4.05273H13.1348C12.9395 4.05273 12.793 3.90625 12.793 3.71094C12.793 3.51562 12.9395 3.36914 13.1348 3.36914H19.9707C20.166 3.36914 20.3125 3.51562 20.3125 3.71094C20.3125 3.90625 20.166 4.05273 19.9707 4.05273Z" fill="#F19E38"/>
<path fill-rule="evenodd" clip-rule="evenodd" d="M19.9707 5.37109H13.1348C12.9395 5.37109 12.793 5.22461 12.793 5.0293C12.793 4.83398 12.9395 4.6875 13.1348 4.6875H19.9707C20.166 4.6875 20.3125 4.83398 20.3125 5.0293C20.3125 5.22461 20.166 5.37109 19.9707 5.37109Z" fill="#F19E38"/>
</g>
<defs>
<clipPath id="clip0_105_28">
<rect width="25" height="25" fill="white"/>
</clipPath>
</defs>
</svg>
