<svg width="25" height="25" viewBox="0 0 25 25" fill="none" xmlns="http://www.w3.org/2000/svg">
<path d="M12.5 0.390625C9.80732 0.393727 7.22584 1.46475 5.32185 3.36875C3.41785 5.27274 2.34683 7.85422 2.34372 10.5469C2.33802 12.7129 3.03211 14.8229 4.32263 16.5625L4.95075 16.0984C3.84167 14.5995 3.21065 12.8008 3.14021 10.9375H6.91404C6.93612 12.4459 7.15637 13.9448 7.56911 15.3957L8.31833 15.1746C7.92665 13.7955 7.71719 12.371 7.69529 10.9375H12.1093V14.4531H12.8906V10.9375H17.3047C17.2821 12.3711 17.072 13.7956 16.6797 15.1746L17.4289 15.3957C17.8423 13.9448 18.0632 12.4459 18.0859 10.9375H21.8613C21.7912 12.8013 21.1601 14.6006 20.0508 16.1L20.6773 16.5625C21.9678 14.8229 22.6619 12.7129 22.6562 10.5469C22.6531 7.85422 21.5821 5.27274 19.6781 3.36875C17.7741 1.46475 15.1926 0.393727 12.5 0.390625ZM6.9074 10.1562H3.13474C3.20576 8.40531 3.76897 6.70986 4.75974 5.26445C5.64363 5.58334 6.55302 5.82653 7.4781 5.99141C7.11991 7.35145 6.92827 8.74998 6.9074 10.1562ZM5.2488 4.61172C6.4446 3.15215 8.05191 2.08615 9.86169 1.55234C8.85543 2.58929 8.11473 3.85412 7.70271 5.23906C6.86985 5.09325 6.04945 4.88351 5.2488 4.61172ZM12.1093 10.1562H7.68865C7.71087 8.793 7.90124 7.43771 8.25544 6.12109C9.53167 6.30949 10.8193 6.40986 12.1093 6.42148V10.1562ZM12.1093 5.64023C10.8977 5.62893 9.68821 5.53759 8.48865 5.3668C9.28435 3.03867 10.5996 1.44258 12.1093 1.20547V5.64023ZM12.8906 1.20547C14.4008 1.44258 15.7164 3.04141 16.5121 5.36758C15.3121 5.53722 14.1024 5.62855 12.8906 5.64102V1.20547ZM12.8906 10.1562V6.42188C14.1806 6.40926 15.4684 6.30929 16.7449 6.12266C17.0987 7.43881 17.289 8.79355 17.3113 10.1562H12.8906ZM17.2972 5.23867C16.8851 3.85389 16.1444 2.58921 15.1383 1.55234C16.9476 2.08546 18.5546 3.15064 19.7504 4.60938C18.9504 4.88312 18.1302 5.09354 17.2972 5.23867ZM18.0926 10.1562C18.0717 8.74969 17.88 7.35088 17.5215 5.99063C18.4468 5.82711 19.3563 5.58402 20.2398 5.26406C21.2309 6.70947 21.7943 8.40511 21.8652 10.1562H18.0926Z" fill="#F19E38"/>
<path d="M19.5312 23.8281H22.2656C22.3692 23.8281 22.4686 23.787 22.5418 23.7137C22.6151 23.6405 22.6562 23.5411 22.6562 23.4375V21.25C22.6558 20.9482 22.5526 20.6555 22.3636 20.4202C22.1746 20.1849 21.911 20.021 21.6164 19.9555C21.8223 19.7707 21.9673 19.5277 22.0322 19.2588C22.0971 18.9898 22.0788 18.7075 21.9799 18.4491C21.8809 18.1907 21.7059 17.9684 21.4779 17.8116C21.25 17.6548 20.9798 17.5709 20.7031 17.5709C20.4264 17.5709 20.1563 17.6548 19.9283 17.8116C19.7004 17.9684 19.5253 18.1907 19.4264 18.4491C19.3274 18.7075 19.3092 18.9898 19.3741 19.2588C19.439 19.5277 19.5839 19.7707 19.7898 19.9555C19.5954 20 19.4136 20.0882 19.2582 20.2133C19.1349 20.0345 18.9757 19.8834 18.7906 19.7697C18.6056 19.6561 18.3988 19.5823 18.1836 19.5531C18.4313 19.3481 18.6098 19.0717 18.6947 18.7615C18.7795 18.4513 18.7665 18.1225 18.6576 17.82C18.5487 17.5174 18.349 17.2558 18.0859 17.0709C17.8228 16.886 17.5091 16.7868 17.1875 16.7868C16.8659 16.7868 16.5522 16.886 16.2891 17.0709C16.026 17.2558 15.8263 17.5174 15.7174 17.82C15.6085 18.1225 15.5955 18.4513 15.6803 18.7615C15.7652 19.0717 15.9437 19.3481 16.1914 19.5531C15.961 19.5832 15.7403 19.6648 15.5457 19.7918C15.4325 19.3812 15.1881 19.019 14.8498 18.7603C14.5114 18.5017 14.0978 18.3609 13.6719 18.3594H13.5914C13.8775 18.1328 14.086 17.8227 14.1879 17.4723C14.2898 17.1218 14.2801 16.7483 14.1601 16.4036C14.0402 16.0589 13.8159 15.7601 13.5184 15.5487C13.2209 15.3372 12.865 15.2236 12.5 15.2236C12.135 15.2236 11.7791 15.3372 11.4816 15.5487C11.1841 15.7601 10.9598 16.0589 10.8399 16.4036C10.7199 16.7483 10.7102 17.1218 10.8121 17.4723C10.914 17.8227 11.1225 18.1328 11.4086 18.3594H11.3281C10.902 18.3606 10.4881 18.5013 10.1495 18.76C9.81093 19.0186 9.56634 19.3811 9.45313 19.7918C9.25855 19.6648 9.03785 19.5832 8.80742 19.5531C9.05518 19.3481 9.23365 19.0717 9.31848 18.7615C9.40331 18.4513 9.39037 18.1225 9.28143 17.82C9.17248 17.5174 8.97284 17.2558 8.70974 17.0709C8.44664 16.886 8.1329 16.7868 7.81133 16.7868C7.48975 16.7868 7.17601 16.886 6.91291 17.0709C6.64981 17.2558 6.45017 17.5174 6.34123 17.82C6.23228 18.1225 6.21935 18.4513 6.30418 18.7615C6.38901 19.0717 6.56748 19.3481 6.81523 19.5531C6.60002 19.5823 6.39326 19.6561 6.20821 19.7697C6.02316 19.8834 5.8639 20.0345 5.74063 20.2133C5.58524 20.0882 5.40345 20 5.20898 19.9555C5.41488 19.7707 5.55985 19.5277 5.62475 19.2588C5.68965 18.9898 5.67141 18.7075 5.57245 18.4491C5.4735 18.1907 5.29848 17.9684 5.07051 17.8116C4.84255 17.6548 4.57238 17.5709 4.2957 17.5709C4.01902 17.5709 3.74885 17.6548 3.52089 17.8116C3.29293 17.9684 3.11791 18.1907 3.01895 18.4491C2.91999 18.7075 2.90176 18.9898 2.96666 19.2588C3.03155 19.5277 3.17653 19.7707 3.38242 19.9555C3.08801 20.0212 2.82476 20.1852 2.63597 20.4205C2.44719 20.6558 2.34413 20.9484 2.34375 21.25V23.4375C2.34375 23.5411 2.38491 23.6405 2.45816 23.7137C2.53142 23.787 2.63077 23.8281 2.73438 23.8281H5.46875C5.46875 23.9317 5.50991 24.0311 5.58316 24.1044C5.65642 24.1776 5.75577 24.2188 5.85938 24.2188H9.375C9.375 24.3224 9.41615 24.4217 9.48941 24.495C9.56267 24.5682 9.66202 24.6094 9.76562 24.6094H15.2344C15.338 24.6094 15.4373 24.5682 15.5106 24.495C15.5838 24.4217 15.625 24.3224 15.625 24.2188H19.1406C19.2442 24.2188 19.3436 24.1776 19.4168 24.1044C19.4901 24.0311 19.5312 23.9317 19.5312 23.8281ZM20.7031 18.3594C20.819 18.3594 20.9323 18.3938 21.0287 18.4581C21.125 18.5225 21.2001 18.614 21.2445 18.7211C21.2888 18.8282 21.3004 18.946 21.2778 19.0596C21.2552 19.1733 21.1994 19.2777 21.1174 19.3596C21.0355 19.4416 20.9311 19.4974 20.8174 19.52C20.7038 19.5426 20.586 19.531 20.4789 19.4867C20.3718 19.4423 20.2803 19.3672 20.2159 19.2709C20.1516 19.1745 20.1172 19.0612 20.1172 18.9453C20.1172 18.7899 20.1789 18.6409 20.2888 18.531C20.3987 18.4211 20.5477 18.3594 20.7031 18.3594ZM19.5312 21.25C19.5312 21.105 19.5889 20.9659 19.6914 20.8633C19.794 20.7608 19.9331 20.7031 20.0781 20.7031H21.3281C21.4732 20.7031 21.6123 20.7608 21.7148 20.8633C21.8174 20.9659 21.875 21.105 21.875 21.25V23.0469H19.5312V21.25ZM4.29688 18.3594C4.41276 18.3594 4.52605 18.3938 4.6224 18.4581C4.71876 18.5225 4.79386 18.614 4.83821 18.7211C4.88256 18.8282 4.89416 18.946 4.87155 19.0596C4.84895 19.1733 4.79314 19.2777 4.7112 19.3596C4.62925 19.4416 4.52485 19.4974 4.41119 19.52C4.29753 19.5426 4.17971 19.531 4.07265 19.4867C3.96558 19.4423 3.87407 19.3672 3.80969 19.2709C3.7453 19.1745 3.71094 19.0612 3.71094 18.9453C3.71094 18.7899 3.77267 18.6409 3.88255 18.531C3.99244 18.4211 4.14147 18.3594 4.29688 18.3594ZM5.46875 23.0469H3.125V21.25C3.125 21.105 3.18262 20.9659 3.28518 20.8633C3.38773 20.7608 3.52683 20.7031 3.67187 20.7031H4.92188C5.06692 20.7031 5.20602 20.7608 5.30857 20.8633C5.41113 20.9659 5.46875 21.105 5.46875 21.25V23.0469ZM7.8125 17.5781C7.96702 17.5781 8.11806 17.624 8.24654 17.7098C8.37502 17.7957 8.47515 17.9177 8.53428 18.0604C8.59341 18.2032 8.60888 18.3603 8.57874 18.5118C8.54859 18.6634 8.47419 18.8026 8.36493 18.9118C8.25567 19.0211 8.11646 19.0955 7.96491 19.1256C7.81337 19.1558 7.65628 19.1403 7.51353 19.0812C7.37077 19.022 7.24876 18.9219 7.16291 18.7934C7.07707 18.665 7.03125 18.5139 7.03125 18.3594C7.03125 18.1522 7.11356 17.9535 7.26007 17.807C7.40659 17.6605 7.6053 17.5781 7.8125 17.5781ZM9.375 23.4375H6.25V21.0938C6.25 20.8866 6.33231 20.6879 6.47882 20.5413C6.62534 20.3948 6.82405 20.3125 7.03125 20.3125H8.59375C8.80095 20.3125 8.99966 20.3948 9.14618 20.5413C9.29269 20.6879 9.375 20.8866 9.375 21.0938V23.4375ZM12.5 16.0156C12.6931 16.0156 12.882 16.0729 13.0426 16.1802C13.2031 16.2875 13.3283 16.44 13.4022 16.6185C13.4761 16.7969 13.4955 16.9933 13.4578 17.1827C13.4201 17.3722 13.3271 17.5462 13.1905 17.6827C13.054 17.8193 12.88 17.9123 12.6905 17.95C12.5011 17.9877 12.3047 17.9683 12.1263 17.8944C11.9478 17.8205 11.7953 17.6953 11.688 17.5348C11.5807 17.3742 11.5234 17.1853 11.5234 16.9922C11.5234 16.7332 11.6263 16.4848 11.8095 16.3017C11.9926 16.1185 12.241 16.0156 12.5 16.0156ZM14.8438 23.8281H10.1562V20.3125C10.1562 20.0017 10.2797 19.7036 10.4995 19.4839C10.7193 19.2641 11.0173 19.1406 11.3281 19.1406H13.6719C13.9827 19.1406 14.2807 19.2641 14.5005 19.4839C14.7203 19.7036 14.8438 20.0017 14.8438 20.3125V23.8281ZM17.1875 17.5781C17.342 17.5781 17.4931 17.624 17.6215 17.7098C17.75 17.7957 17.8502 17.9177 17.9093 18.0604C17.9684 18.2032 17.9839 18.3603 17.9537 18.5118C17.9236 18.6634 17.8492 18.8026 17.7399 18.9118C17.6307 19.0211 17.4915 19.0955 17.3399 19.1256C17.1884 19.1558 17.0313 19.1403 16.8885 19.0812C16.7458 19.022 16.6238 18.9219 16.5379 18.7934C16.4521 18.665 16.4062 18.5139 16.4062 18.3594C16.4062 18.1522 16.4886 17.9535 16.6351 17.807C16.7816 17.6605 16.9803 17.5781 17.1875 17.5781ZM18.75 23.4375H15.625V21.0938C15.625 20.8866 15.7073 20.6879 15.8538 20.5413C16.0003 20.3948 16.199 20.3125 16.4062 20.3125H17.9688C18.176 20.3125 18.3747 20.3948 18.5212 20.5413C18.6677 20.6879 18.75 20.8866 18.75 21.0938V23.4375Z" fill="#F19E38"/>
</svg>
