<svg width="25" height="25" viewBox="0 0 25 25" fill="none" xmlns="http://www.w3.org/2000/svg">
<g clip-path="url(#clip0_105_21)">
<path d="M24.6094 5.46875H23.8461C24.0906 4.84652 24.217 4.18417 24.2188 3.51562C24.2189 3.14936 24.1455 2.7868 24.0029 2.44946C23.8602 2.11211 23.6513 1.80686 23.3884 1.55182C23.1255 1.29678 22.8141 1.09715 22.4726 0.964782C22.1311 0.832413 21.7665 0.770001 21.4004 0.78125C20.6789 0.821342 20.0006 1.13824 19.5069 1.66594C19.0132 2.19364 18.742 2.89146 18.75 3.61406C18.7518 4.24843 18.8701 4.87706 19.0988 5.46875H16.4062V0.390625C16.4062 0.287025 16.3651 0.187668 16.2918 0.114411C16.2186 0.041155 16.1192 0 16.0156 0L0.390625 0C0.287025 0 0.187668 0.041155 0.114411 0.114411C0.041155 0.187668 0 0.287025 0 0.390625L0 24.6094C0 24.713 0.041155 24.8123 0.114411 24.8856C0.187668 24.9588 0.287025 25 0.390625 25H16.0156C16.1192 25 16.2186 24.9588 16.2918 24.8856C16.3651 24.8123 16.4062 24.713 16.4062 24.6094V16.4062H24.6094C24.713 16.4062 24.8123 16.3651 24.8856 16.2918C24.9588 16.2186 25 16.1192 25 16.0156V5.85938C25 5.75577 24.9588 5.65642 24.8856 5.58316C24.8123 5.5099 24.713 5.46875 24.6094 5.46875ZM21.4242 1.5625C21.6857 1.55444 21.9462 1.59901 22.1901 1.69354C22.4341 1.78808 22.6566 1.93067 22.8443 2.11285C23.0321 2.29502 23.1814 2.51306 23.2833 2.75404C23.3852 2.99501 23.4376 3.254 23.4375 3.51562C23.4384 4.19205 23.2901 4.86034 23.0031 5.47288C22.7162 6.08542 22.2976 6.62712 21.7773 7.05938L21.4844 7.30469L21.1156 6.99727C20.619 6.58451 20.2196 6.06732 19.9457 5.48254C19.6719 4.89777 19.5304 4.25979 19.5312 3.61406C19.522 3.09417 19.7136 2.59073 20.0662 2.20858C20.4188 1.82643 20.9053 1.595 21.4242 1.5625ZM15.625 0.78125V1.5625H0.78125V0.78125H15.625ZM0.78125 24.2188V22.6562H15.625V24.2188H0.78125ZM15.625 21.875H0.78125V2.34375H15.625V5.46875H8.20312C8.09952 5.46875 8.00017 5.5099 7.92691 5.58316C7.85365 5.65642 7.8125 5.75577 7.8125 5.85938V16.0156C7.8125 16.1192 7.85365 16.2186 7.92691 16.2918C8.00017 16.3651 8.09952 16.4062 8.20312 16.4062H9.76562V19.1406C9.76561 19.2179 9.78849 19.2934 9.83139 19.3576C9.87429 19.4219 9.93528 19.472 10.0066 19.5016C10.054 19.5213 10.1049 19.5314 10.1562 19.5312C10.2598 19.5312 10.3592 19.4901 10.4324 19.4168L13.443 16.4062H15.625V21.875ZM24.2188 15.625H13.2812C13.1777 15.625 13.0783 15.6662 13.0051 15.7395L10.5469 18.1977V16.0156C10.5469 15.912 10.5057 15.8127 10.4325 15.7394C10.3592 15.6662 10.2599 15.625 10.1562 15.625H8.59375V6.25H19.4723C19.7316 6.68526 20.0533 7.0801 20.4273 7.42188H17.9688C17.8652 7.42188 17.7658 7.46303 17.6925 7.53629C17.6193 7.60954 17.5781 7.7089 17.5781 7.8125V9.375C17.5781 9.4786 17.6193 9.57796 17.6925 9.65121C17.7658 9.72447 17.8652 9.76562 17.9688 9.76562H22.6562V10.5469H16.0156C15.912 10.5469 15.8127 10.588 15.7394 10.6613C15.6662 10.7345 15.625 10.8339 15.625 10.9375V12.8906C15.625 12.9942 15.6662 13.0936 15.7394 13.1668C15.8127 13.2401 15.912 13.2812 16.0156 13.2812H17.9688V14.0625H13.1582C13.6903 13.5605 14.1143 12.955 14.4041 12.2833C14.694 11.6116 14.8436 10.8878 14.8438 10.1562C14.8439 9.78999 14.7705 9.42743 14.6279 9.09008C14.4852 8.75274 14.2763 8.44748 14.0134 8.19245C13.7505 7.93741 13.4391 7.73778 13.0976 7.60541C12.7561 7.47304 12.3915 7.41063 12.0254 7.42188C11.3039 7.46197 10.6256 7.77886 10.1319 8.30656C9.63816 8.83426 9.36705 9.53208 9.375 10.2547C9.37382 11.0151 9.54037 11.7664 9.86277 12.4551C10.1852 13.1438 10.6555 13.7529 11.2402 14.2391L11.859 14.7551C11.9295 14.813 12.0181 14.8443 12.1094 14.8438H18.3594C18.463 14.8438 18.5623 14.8026 18.6356 14.7293C18.7088 14.6561 18.75 14.5567 18.75 14.4531V12.8906C18.75 12.787 18.7088 12.6877 18.6356 12.6144C18.5623 12.5412 18.463 12.5 18.3594 12.5H16.4062V11.3281H23.0469C23.1505 11.3281 23.2498 11.287 23.3231 11.2137C23.3963 11.1405 23.4375 11.0411 23.4375 10.9375V9.375C23.4375 9.2714 23.3963 9.17204 23.3231 9.09879C23.2498 9.02553 23.1505 8.98438 23.0469 8.98438H18.3594V8.20312H21.4844C21.5758 8.20329 21.6644 8.17135 21.7348 8.11289L22.2773 7.65977C22.7536 7.26212 23.1576 6.78519 23.4715 6.25H24.2188V15.625ZM12.4023 13.7L12.1094 13.9453L11.7406 13.6379C11.244 13.2251 10.8446 12.7079 10.5707 12.1232C10.2969 11.5384 10.1554 10.9004 10.1562 10.2547C10.147 9.73479 10.3386 9.23136 10.6912 8.8492C11.0438 8.46705 11.5303 8.23563 12.0492 8.20312C12.3107 8.19507 12.5712 8.23963 12.8151 8.33417C13.0591 8.42871 13.2816 8.5713 13.4693 8.75347C13.6571 8.93564 13.8064 9.15369 13.9083 9.39466C14.0102 9.63563 14.0626 9.89462 14.0625 10.1562C14.0634 10.8327 13.9151 11.501 13.6281 12.1135C13.3412 12.726 12.9226 13.2677 12.4023 13.7Z" fill="#F19E38"/>
<path d="M23.0469 3.51563C23.0469 3.20659 22.9552 2.9045 22.7835 2.64755C22.6119 2.3906 22.3678 2.19033 22.0823 2.07206C21.7968 1.9538 21.4826 1.92286 21.1795 1.98315C20.8765 2.04344 20.598 2.19225 20.3795 2.41077C20.161 2.62929 20.0122 2.9077 19.9519 3.2108C19.8916 3.51389 19.9226 3.82806 20.0408 4.11357C20.1591 4.39908 20.3593 4.64311 20.6163 4.8148C20.8732 4.98649 21.1753 5.07813 21.4844 5.07813C21.8988 5.07813 22.2962 4.91351 22.5892 4.62048C22.8823 4.32745 23.0469 3.93003 23.0469 3.51563ZM20.7031 3.51563C20.7031 3.36111 20.7489 3.21006 20.8348 3.08159C20.9206 2.95311 21.0427 2.85298 21.1854 2.79384C21.3282 2.73471 21.4852 2.71924 21.6368 2.74939C21.7883 2.77953 21.9275 2.85394 22.0368 2.9632C22.1461 3.07246 22.2205 3.21166 22.2506 3.36321C22.2808 3.51476 22.2653 3.67184 22.2062 3.8146C22.147 3.95735 22.0469 4.07937 21.9184 4.16521C21.7899 4.25106 21.6389 4.29688 21.4844 4.29688C21.2772 4.29688 21.0785 4.21457 20.9319 4.06805C20.7854 3.92154 20.7031 3.72283 20.7031 3.51563Z" fill="#F19E38"/>
<path d="M12.1094 8.59375C11.8003 8.59375 11.4982 8.68539 11.2413 8.85708C10.9843 9.02877 10.7841 9.2728 10.6658 9.55831C10.5476 9.84382 10.5166 10.158 10.5769 10.4611C10.6372 10.7642 10.786 11.0426 11.0045 11.2611C11.223 11.4796 11.5015 11.6284 11.8045 11.6887C12.1076 11.749 12.4218 11.7181 12.7073 11.5998C12.9928 11.4815 13.2369 11.2813 13.4085 11.0243C13.5802 10.7674 13.6719 10.4653 13.6719 10.1562C13.6719 9.74185 13.5073 9.34442 13.2142 9.0514C12.9212 8.75837 12.5238 8.59375 12.1094 8.59375ZM12.1094 10.9375C11.9549 10.9375 11.8038 10.8917 11.6753 10.8058C11.5469 10.72 11.4467 10.598 11.3876 10.4552C11.3285 10.3125 11.313 10.1554 11.3431 10.0038C11.3733 9.85229 11.4477 9.71308 11.5569 9.60382C11.6662 9.49456 11.8054 9.42016 11.957 9.39001C12.1085 9.35987 12.2656 9.37534 12.4083 9.43447C12.5511 9.4936 12.6731 9.59373 12.759 9.72221C12.8448 9.85069 12.8906 10.0017 12.8906 10.1562C12.8906 10.3635 12.8083 10.5622 12.6618 10.7087C12.5153 10.8552 12.3166 10.9375 12.1094 10.9375Z" fill="#F19E38"/>
<path d="M7.03125 7.03125H2.34375V3.90625H8.20312V4.6875H8.98438V3.51562C8.98438 3.41202 8.94322 3.31267 8.86996 3.23941C8.79671 3.16616 8.69735 3.125 8.59375 3.125H1.95312C1.84952 3.125 1.75017 3.16616 1.67691 3.23941C1.60366 3.31267 1.5625 3.41202 1.5625 3.51562V7.42188C1.5625 7.52548 1.60366 7.62483 1.67691 7.69809C1.75017 7.77135 1.84952 7.8125 1.95312 7.8125H7.03125V7.03125Z" fill="#F19E38"/>
<path d="M12.1094 20.3125H3.51562V12.8906H7.03125V12.1094H3.125C3.0214 12.1094 2.92204 12.1505 2.84879 12.2238C2.77553 12.297 2.73438 12.3964 2.73438 12.5V20.7031C2.73438 20.8067 2.77553 20.9061 2.84879 20.9793C2.92204 21.0526 3.0214 21.0938 3.125 21.0938H12.5C12.6036 21.0938 12.703 21.0526 12.7762 20.9793C12.8495 20.9061 12.8906 20.8067 12.8906 20.7031V18.75H12.1094V20.3125Z" fill="#F19E38"/>
</g>
<defs>
<clipPath id="clip0_105_21">
<rect width="25" height="25" fill="white"/>
</clipPath>
</defs>
</svg>
