<svg width="27" height="27" viewBox="0 0 27 27" fill="none" xmlns="http://www.w3.org/2000/svg">
<path d="M24.167 2.79858H9.87799C8.55002 2.79858 7.46948 3.87858 7.46948 5.20602V7.81924C7.46948 8.04196 7.64975 8.22223 7.87247 8.22223C8.09518 8.22223 8.27545 8.04196 8.27545 7.81924V5.20602C8.27545 4.32294 8.99438 3.60455 9.87799 3.60455H24.167C25.0515 3.60455 25.7709 4.32294 25.7709 5.20602V15.0413C25.7709 15.9243 25.0515 16.6427 24.167 16.6427H18.813C18.8063 16.6427 18.7998 16.6443 18.7931 16.6446C18.7864 16.6443 18.7802 16.6427 18.7732 16.6427H15.2699C15.0475 16.6427 14.8669 16.8233 14.8669 17.0457V21.2086H11.0203C10.7976 21.2086 10.6173 21.3891 10.6173 21.6115C10.6173 21.834 10.7976 22.0145 11.0203 22.0145H15.2702H18.7735H23.0269C23.2493 22.0145 23.4298 21.834 23.4298 21.6115C23.4298 21.3891 23.2493 21.2086 23.0269 21.2086H19.1765V17.4487H24.167C25.4958 17.4487 26.5769 16.3687 26.5769 15.0413V5.20602C26.5769 3.87858 25.4958 2.79858 24.167 2.79858ZM15.6732 21.2086V17.4487H18.3705V21.2086H15.6732Z" fill="#F19E38"/>
<path d="M8.67279 20.1747C10.1735 20.1747 11.668 19.5579 12.7397 18.3497C14.7275 16.1078 14.5217 12.6671 12.2806 10.6796C10.0389 8.6926 6.59849 8.89866 4.61097 11.1387C2.71398 13.2786 2.8201 16.5076 4.78183 18.5257L4.12121 19.2712L3.96861 19.1361C3.80231 18.9889 3.54897 19.0039 3.40148 19.1689L0.416968 22.5016C0.345505 22.5813 0.308699 22.6861 0.314878 22.7928C0.320789 22.8994 0.368878 22.9999 0.448669 23.0708L1.38709 23.9093C1.46392 23.9781 1.55983 24.0119 1.65548 24.0119C1.76616 24.0119 1.87631 23.9665 1.95583 23.8776L4.9433 20.5396C5.01476 20.4598 5.05157 20.3547 5.04539 20.2475C5.03921 20.1406 4.99031 20.0404 4.91025 19.9692L4.72515 19.8053L5.38416 19.0617C6.35804 19.8053 7.51649 20.1747 8.67279 20.1747ZM1.62377 23.0402L1.28634 22.7388L3.70613 20.0372C3.72736 20.1043 3.76497 20.1675 3.82165 20.2174C3.89151 20.2792 3.97721 20.3088 4.06371 20.3142L1.62377 23.0402ZM5.2141 11.6736C6.127 10.6447 7.39936 10.1197 8.67789 10.1197C9.76998 10.1197 10.8664 10.5031 11.746 11.2825C13.6545 12.975 13.8299 15.9055 12.1368 17.8148C10.4443 19.7231 7.51354 19.8985 5.60473 18.2055C3.69673 16.5132 3.52157 13.583 5.2141 11.6736Z" fill="#F19E38"/>
<path d="M17.053 6.55871C17.3186 6.55871 17.5339 6.34341 17.5339 6.07782C17.5339 5.81223 17.3186 5.59692 17.053 5.59692C16.7874 5.59692 16.5721 5.81223 16.5721 6.07782C16.5721 6.34341 16.7874 6.55871 17.053 6.55871Z" fill="#F19E38"/>
</svg>

