<?xml version="1.0" encoding="UTF-8" standalone="no"?> <svg id="Layer_1" data-name="Layer 1" xmlns="http://www.w3.org/2000/svg" viewBox="0 0 100 100"><path fill="#f19e38" d="M50,51.693A11.746,11.746,0,1,0,38.254,39.948,11.759,11.759,0,0,0,50,51.693ZM50,31.2a8.746,8.746,0,1,1-8.746,8.746A8.756,8.756,0,0,1,50,31.2Z"/><path fill="#f19e38" d="M75.581,41.349A11.746,11.746,0,1,0,63.835,29.6,11.759,11.759,0,0,0,75.581,41.349Zm0-20.492A8.746,8.746,0,1,1,66.835,29.6,8.757,8.757,0,0,1,75.581,20.857Z"/><path fill="#f19e38" d="M5,71.984H29.307A21.106,21.106,0,0,0,29.081,75V80.83a1.5,1.5,0,0,0,1.5,1.5H69.419a1.5,1.5,0,0,0,1.5-1.5V75a21.106,21.106,0,0,0-.226-3.019H95a1.5,1.5,0,0,0,1.5-1.5V64.657a20.92,20.92,0,0,0-39.614-9.388,21.12,21.12,0,0,0-13.786.005A20.909,20.909,0,0,0,3.5,64.657v5.827A1.5,1.5,0,0,0,5,71.984ZM75.581,46.738A17.918,17.918,0,0,1,93.5,64.657v4.327H70.039c-.013-.043-.029-.085-.043-.128-.051-.166-.109-.328-.165-.493-.09-.269-.181-.537-.281-.8-.068-.177-.141-.35-.213-.525-.1-.248-.206-.494-.318-.737q-.121-.265-.251-.526-.174-.354-.362-.7c-.093-.172-.187-.344-.285-.513-.132-.228-.269-.453-.409-.676-.1-.164-.206-.328-.314-.489-.151-.227-.31-.448-.47-.669-.108-.148-.213-.3-.325-.444-.183-.239-.376-.471-.57-.7-.1-.119-.2-.242-.3-.359-.3-.344-.613-.68-.938-1-.432-.433-.884-.839-1.348-1.23-.147-.123-.3-.238-.45-.358-.329-.261-.663-.515-1.006-.756q-.267-.186-.539-.364c-.344-.226-.7-.439-1.054-.644-.175-.1-.348-.2-.527-.3-.075-.04-.146-.086-.221-.125A17.89,17.89,0,0,1,75.581,46.738ZM57.07,58.531A17.9,17.9,0,0,1,67.919,75V79.33H32.081V75a17.941,17.941,0,0,1,.488-4.171,17.731,17.731,0,0,1,1.44-3.916c.217-.427.457-.841.707-1.249a17.929,17.929,0,0,1,8.214-7.136h0A18.084,18.084,0,0,1,57.07,58.531ZM6.5,64.657a17.928,17.928,0,0,1,33.85-8.219c-.055.029-.105.065-.16.094-.558.3-1.1.614-1.63.959l-.031.019c-.529.349-1.037.727-1.531,1.121-.079.063-.159.124-.238.188q-.7.578-1.351,1.212l-.238.238c-.432.436-.849.886-1.242,1.357-.042.051-.081.1-.122.154q-.572.7-1.081,1.444c-.036.054-.076.105-.112.159-.341.509-.655,1.036-.951,1.574-.055.1-.11.2-.164.3-.282.533-.543,1.079-.778,1.637-.041.1-.079.195-.118.293-.237.584-.454,1.177-.637,1.784l-.005.013H6.5Z"/><path fill="#f19e38" d="M24.419,41.349A11.746,11.746,0,1,0,12.673,29.6,11.759,11.759,0,0,0,24.419,41.349Zm0-20.492A8.746,8.746,0,1,1,15.673,29.6,8.757,8.757,0,0,1,24.419,20.857Z"/></svg>