<svg width="25" height="25" viewBox="0 0 25 25" fill="none" xmlns="http://www.w3.org/2000/svg">
<g clip-path="url(#clip0_105_68)">
<path d="M19.4961 13.5547C19.4877 13.2664 19.3597 12.9914 19.1449 12.8001C17.3178 11.1735 14.958 10.2777 12.5 10.2777C10.042 10.2777 7.68221 11.1735 5.85512 12.8001C5.64037 12.9913 5.51239 13.2663 5.50404 13.5545C5.4956 13.8445 5.60839 14.1285 5.81356 14.3337L7.82152 16.3416C8.21219 16.7322 8.82508 16.7589 9.2473 16.4035C10.1531 15.6408 11.3083 15.2208 12.5 15.2209C13.6919 15.2209 14.847 15.6409 15.7528 16.4035C15.9514 16.5708 16.1921 16.6534 16.4322 16.6534C16.7024 16.6534 16.9717 16.5486 17.1786 16.3417L19.1865 14.3338C19.3916 14.1286 19.5045 13.8447 19.4961 13.5547ZM16.4334 15.5955L16.4332 15.5954C15.3372 14.6727 13.9404 14.1645 12.5 14.1645C11.0597 14.1645 9.66278 14.6728 8.56844 15.5947L6.55756 13.5891C8.191 12.135 10.3014 11.3342 12.5001 11.3342C14.6988 11.3342 16.8091 12.135 18.4396 13.5867L16.4334 15.5955Z" fill="#F19E38"/>
<path d="M14.0718 18.7015C13.652 18.2817 13.0938 18.0504 12.5001 18.0504C11.9064 18.0504 11.3481 18.2817 10.9283 18.7014C10.0617 19.5682 10.0617 20.9783 10.9284 21.8449C11.3617 22.2782 11.931 22.4949 12.5001 22.4949C13.0692 22.4949 13.6385 22.2783 14.0718 21.8449C14.4916 21.4252 14.7228 20.8669 14.7228 20.2732C14.7228 19.6795 14.4916 19.1213 14.0718 18.7015ZM13.3248 21.0981C12.8701 21.5528 12.1301 21.5528 11.6753 21.0981C11.2205 20.6432 11.2205 19.9032 11.6753 19.4485C11.8956 19.2281 12.1885 19.1068 12.5001 19.1068C12.8116 19.1068 13.1045 19.2281 13.3249 19.4485L13.3249 19.4485C13.5452 19.6688 13.6665 19.9617 13.6665 20.2733C13.6665 20.5848 13.5452 20.8778 13.3248 21.0981Z" fill="#F19E38"/>
<path d="M24.6653 7.3104C17.8437 0.903238 7.15636 0.903189 0.334641 7.31035C0.123411 7.50869 0.00466142 7.7772 7.15812e-05 8.0665C-0.0044206 8.35469 0.105345 8.62563 0.309055 8.82935L2.31301 10.8333C2.71633 11.2366 3.35915 11.2493 3.77643 10.8622C6.14972 8.66016 9.24776 7.44741 12.5 7.44741C15.7521 7.44741 18.8502 8.66016 21.2235 10.8622C21.4266 11.0508 21.6833 11.1445 21.9397 11.1445C22.2099 11.1445 22.48 11.0403 22.687 10.8333L24.6909 8.82939C24.8947 8.62568 25.0044 8.35474 24.9999 8.06655C24.9953 7.7773 24.8765 7.50874 24.6653 7.3104ZM21.9421 10.0879C19.3728 7.70391 16.0196 6.39107 12.5 6.39107C8.98047 6.39107 5.62726 7.70396 3.06003 10.0863L1.05783 8.08037C7.47413 2.05402 17.5261 2.05421 23.9422 8.08042L23.944 8.08242L21.9421 10.0879Z" fill="#F19E38"/>
</g>
<defs>
<clipPath id="clip0_105_68">
<rect width="25" height="25" fill="white"/>
</clipPath>
</defs>
</svg>
